<svg class="animated" id="freepik_stories-take-away" xmlns="http://www.w3.org/2000/svg" xmlns:xlink="http://www.w3.org/1999/xlink" viewBox="0 0 500 500" version="1.1" xmlns:svgjs="http://svgjs.com/svgjs"><style>svg#freepik_stories-take-away:not(.animated) .animable {opacity: 0;}svg#freepik_stories-take-away.animated #freepik--Character--inject-15 {animation: 1s 1 forwards linear slideLeft,1.5s Infinite  linear shake;animation-delay: 0s,1s;}            @keyframes slideLeft {                0% {                    opacity: 0;                    transform: translateX(-30px);                }                100% {                    opacity: 1;                    transform: translateX(0);                }            }                    @keyframes shake {                10%, 90% {                    transform: translate3d(-1px, 0, 0);                  }                  20%, 80% {                    transform: translate3d(2px, 0, 0);                  }                  30%, 50%, 70% {                    transform: translate3d(-4px, 0, 0);                  }                  40%, 60% {                    transform: translate3d(4px, 0, 0);                  }            }        </style><g id="freepik--background-simple--inject-15" class="animable" style="transform-origin: 253.594px 222.14px;"><path d="M333.11,35.89S259.66,14.26,187.13,58,77.62,183.33,45.89,248.78,31.75,378.36,86.71,405.29s92.77-18.61,170.17-24.54,98.14,3.71,162.63-41.6S496.27,193.69,446.1,122.5,333.11,35.89,333.11,35.89Z" style="fill: rgb(146, 227, 169); transform-origin: 253.594px 222.14px;" id="elfyej406h19a" class="animable"></path><g id="ele8ajlfx02bt"><path d="M333.11,35.89S259.66,14.26,187.13,58,77.62,183.33,45.89,248.78,31.75,378.36,86.71,405.29s92.77-18.61,170.17-24.54,98.14,3.71,162.63-41.6S496.27,193.69,446.1,122.5,333.11,35.89,333.11,35.89Z" style="fill: rgb(255, 255, 255); opacity: 0.7; transform-origin: 253.594px 222.14px;" class="animable"></path></g></g><g id="freepik--Menu--inject-15" class="animable" style="transform-origin: 255.5px 173.14px;"><rect x="54.96" y="224.66" width="401.66" height="18.62" style="fill: rgb(38, 50, 56); transform-origin: 255.79px 233.97px;" id="el2qm9k4l9nn8" class="animable"></rect><rect x="49" y="103" width="413" height="133" style="fill: rgb(255, 255, 255); transform-origin: 255.5px 169.5px;" id="elzeddhuqcvue" class="animable"></rect><g style="clip-path: url(&quot;#freepik--clip-path--inject-15&quot;); transform-origin: 281.894px 140.326px;" id="elxd0wks315a" class="animable"><path d="M183.36,103v66.63h-10.3c-13,1.37-20.59-8.92-17.84-24.71s-41.87,8.93-52.16,0c-7.29-6.31,18.43-29.12,34.08-41.92Zm202.81,36.1c7.61,18,88.15-32.1,70.2-3.26s-36.46,48.43,3.81,39.73l1.82-.43V103H423.79C405.52,112.53,381.32,127.68,386.17,139.1Z" style="fill: rgb(146, 227, 169); transform-origin: 281.894px 140.326px;" id="elg9r0oqo3zhv" class="animable"></path><g id="elbnlvpn73hhd"><path d="M183.36,103v66.63h-10.3c-13,1.37-20.59-8.92-17.84-24.71s-41.87,8.93-52.16,0c-7.29-6.31,18.43-29.12,34.08-41.92Zm202.81,36.1c7.61,18,88.15-32.1,70.2-3.26s-36.46,48.43,3.81,39.73l1.82-.43V103H423.79C405.52,112.53,381.32,127.68,386.17,139.1Z" style="fill: rgb(255, 255, 255); opacity: 0.5; transform-origin: 281.894px 140.326px;" class="animable"></path></g></g><rect x="49" y="103" width="413" height="133" style="fill: none; stroke: rgb(38, 50, 56); stroke-linecap: round; stroke-linejoin: round; transform-origin: 255.5px 169.5px;" id="eluc4ylnvqtu" class="animable"></rect><rect x="183.1" y="103" width="144.79" height="133" style="fill: rgb(255, 255, 255); transform-origin: 255.495px 169.5px;" id="eloh28ph111ol" class="animable"></rect><g style="clip-path: url(&quot;#freepik--clip-path-2--inject-15&quot;); transform-origin: 262.81px 170.32px;" id="el8yo1i9o5qkm" class="animable"><path d="M279.58,174c-15.87,8.48-61.7,45.49-81.86,62H327.9V104.64c-17,6.92-81.79,33.94-85.36,44.36C238.42,161,300.16,163,279.58,174Z" style="fill: rgb(146, 227, 169); transform-origin: 262.81px 170.32px;" id="ely2w6v3x32z" class="animable"></path><g id="elty8uq03hsr"><path d="M279.58,174c-15.87,8.48-61.7,45.49-81.86,62H327.9V104.64c-17,6.92-81.79,33.94-85.36,44.36C238.42,161,300.16,163,279.58,174Z" style="fill: rgb(255, 255, 255); opacity: 0.5; transform-origin: 262.81px 170.32px;" class="animable"></path></g></g><rect x="183.1" y="103" width="144.79" height="133" style="fill: none; stroke: rgb(38, 50, 56); stroke-linecap: round; stroke-linejoin: round; transform-origin: 255.495px 169.5px;" id="elpiv9ungycyd" class="animable"></rect><path d="M337.44,153.61c4.29,9.42,16.35,16.64,22.16,18.39,0,0,15.56,5.44,27.23-3.58s14.24-26.52,3.23-43.56-34.53-13.37-44.61-3.78S333.16,144.19,337.44,153.61ZM370,138c3.79,3.3,4,8,.25,10.27a6.74,6.74,0,0,1-6.9-.12,5.35,5.35,0,0,1-2.35-6.84C362.1,138.63,366.24,134.69,370,138Z" style="fill: rgb(255, 255, 255); stroke: rgb(38, 50, 56); stroke-miterlimit: 10; transform-origin: 366.229px 143.305px;" id="elfo8jkm786lr" class="animable"></path><path d="M346,122.41c-1.46,4.67-2.17,6-4.58,8.3s-3.69,6.13-3.4,8.15a36.77,36.77,0,0,1,.32,7.24,10.67,10.67,0,0,0,4,8.68,21.85,21.85,0,0,1,5.41,5.69c2.11,2.91,1.42,3.57,4.58,5.16s9.13,4.77,9.13,4.77,6.82,3,9.88,1.76,6.7-5.71,9.08-6.66,3.49,1.6,6.64-3,4.07-8.14,6-9.95,2.39-8.18-.23-10.93a14.06,14.06,0,0,1-4.3-9.7c-.39-4.55-1.67-7.28-6.5-8.91s-8.44-5.76-10.25-7.32-6.7-1.18-9.77.42-5.86-1-9.09.45c-1,.46-2,.75-2.79,1.08a27.29,27.29,0,0,0-2.48,1.64A8.62,8.62,0,0,0,346,122.41ZM361.42,139c2,.38,3.11-3.29,6.64-3.37s1.47,1.89,2,2.4a9.61,9.61,0,0,1,2.06,2.49,6,6,0,0,1,1.18,2.64,7.35,7.35,0,0,0,1.4,4.58c1.13,1.54-1.39,1.65-3.59,2.1s-2.36.27-4.08,1.57-4.18-.94-4.18-.94-1.5-.54-2.95-3.1.08-3-1.22-5.08S359.41,138.56,361.42,139Z" style="fill: rgb(255, 255, 255); stroke: rgb(38, 50, 56); stroke-miterlimit: 10; transform-origin: 366.316px 143.578px;" id="els2mtp16yfr" class="animable"></path><circle cx="362.36" cy="124.93" r="1.74" style="fill: rgb(255, 255, 255); stroke: rgb(38, 50, 56); stroke-miterlimit: 10; transform-origin: 362.36px 124.93px;" id="ellj3btad8oi" class="animable"></circle><circle cx="351.91" cy="129.16" r="0.75" style="fill: rgb(255, 255, 255); stroke: rgb(38, 50, 56); stroke-miterlimit: 10; transform-origin: 351.91px 129.16px;" id="elf8qmy58domc" class="animable"></circle><circle cx="356.26" cy="120.57" r="1.12" style="fill: rgb(255, 255, 255); stroke: rgb(38, 50, 56); stroke-miterlimit: 10; transform-origin: 356.26px 120.57px;" id="ela9483iabck9" class="animable"></circle><path d="M350.91,137.87a2,2,0,1,1-2-2A2,2,0,0,1,350.91,137.87Z" style="fill: rgb(255, 255, 255); stroke: rgb(38, 50, 56); stroke-miterlimit: 10; transform-origin: 348.91px 137.87px;" id="elbcqq5sv0z3b" class="animable"></path><path d="M374.06,131.53a1.37,1.37,0,1,1-1.37-1.37A1.36,1.36,0,0,1,374.06,131.53Z" style="fill: rgb(255, 255, 255); stroke: rgb(38, 50, 56); stroke-miterlimit: 10; transform-origin: 372.69px 131.53px;" id="elpgvfjz2n7eo" class="animable"></path><circle cx="373.69" cy="123.31" r="1.12" style="fill: rgb(255, 255, 255); stroke: rgb(38, 50, 56); stroke-miterlimit: 10; transform-origin: 373.69px 123.31px;" id="ells5aic4wnnm" class="animable"></circle><path d="M384,132.77a1.62,1.62,0,1,1-1.62-1.62A1.63,1.63,0,0,1,384,132.77Z" style="fill: rgb(255, 255, 255); stroke: rgb(38, 50, 56); stroke-miterlimit: 10; transform-origin: 382.38px 132.77px;" id="elrvnm96ol0y" class="animable"></path><path d="M386,146.46a1.37,1.37,0,1,1-1.37-1.37A1.37,1.37,0,0,1,386,146.46Z" style="fill: rgb(255, 255, 255); stroke: rgb(38, 50, 56); stroke-miterlimit: 10; transform-origin: 384.63px 146.46px;" id="el99nnc6w0kd" class="animable"></path><path d="M377.55,160.52a1.5,1.5,0,1,1-1.5-1.49A1.5,1.5,0,0,1,377.55,160.52Z" style="fill: rgb(255, 255, 255); stroke: rgb(38, 50, 56); stroke-miterlimit: 10; transform-origin: 376.05px 160.53px;" id="el05885bljezic" class="animable"></path><circle cx="360.12" cy="162.76" r="2.24" style="fill: rgb(255, 255, 255); stroke: rgb(38, 50, 56); stroke-miterlimit: 10; transform-origin: 360.12px 162.76px;" id="elf5azbkxn63d" class="animable"></circle><circle cx="351.78" cy="149.2" r="1.12" style="fill: rgb(255, 255, 255); stroke: rgb(38, 50, 56); stroke-miterlimit: 10; transform-origin: 351.78px 149.2px;" id="elbt7izghgpmg" class="animable"></circle><path d="M363.86,154.8a1,1,0,1,1-1-1A1,1,0,0,1,363.86,154.8Z" style="fill: rgb(255, 255, 255); stroke: rgb(38, 50, 56); stroke-miterlimit: 10; transform-origin: 362.86px 154.8px;" id="elr2dzvvukdpi" class="animable"></path><path d="M344.19,144a.87.87,0,1,1-.87-.87A.87.87,0,0,1,344.19,144Z" style="fill: rgb(255, 255, 255); stroke: rgb(38, 50, 56); stroke-miterlimit: 10; transform-origin: 343.32px 144px;" id="elukw1264z3to" class="animable"></path><path d="M351.16,121.45a.75.75,0,1,1-.75-.75A.74.74,0,0,1,351.16,121.45Z" style="fill: rgb(255, 255, 255); stroke: rgb(38, 50, 56); stroke-miterlimit: 10; transform-origin: 350.41px 121.45px;" id="el7s8voi79l5s" class="animable"></path><path d="M360.37,131.53a.62.62,0,0,1-.62.62.63.63,0,0,1,0-1.25A.63.63,0,0,1,360.37,131.53Z" style="fill: rgb(255, 255, 255); stroke: rgb(38, 50, 56); stroke-miterlimit: 10; transform-origin: 359.785px 131.525px;" id="el1txmyehhyrv" class="animable"></path><path d="M378.54,140.24a.87.87,0,1,1-.87-.87A.87.87,0,0,1,378.54,140.24Z" style="fill: rgb(255, 255, 255); stroke: rgb(38, 50, 56); stroke-miterlimit: 10; transform-origin: 377.67px 140.24px;" id="eltbndnmgdgco" class="animable"></path><path d="M386.76,154.3a1.5,1.5,0,1,1-1.5-1.49A1.49,1.49,0,0,1,386.76,154.3Z" style="fill: rgb(255, 255, 255); stroke: rgb(38, 50, 56); stroke-miterlimit: 10; transform-origin: 385.26px 154.31px;" id="elam94v9efrdq" class="animable"></path><path d="M357.13,142a1.37,1.37,0,1,1-1.36-1.37A1.36,1.36,0,0,1,357.13,142Z" style="fill: rgb(255, 255, 255); stroke: rgb(38, 50, 56); stroke-miterlimit: 10; transform-origin: 355.76px 142px;" id="el0mswnmo72hk8" class="animable"></path><path d="M350.91,154.3a1,1,0,1,1-1-1A1,1,0,0,1,350.91,154.3Z" style="fill: rgb(255, 255, 255); stroke: rgb(38, 50, 56); stroke-miterlimit: 10; transform-origin: 349.91px 154.3px;" id="elkgybll2eh08" class="animable"></path><path d="M345.44,135.63a1.25,1.25,0,1,1-1.25-1.24A1.25,1.25,0,0,1,345.44,135.63Z" style="fill: rgb(255, 255, 255); stroke: rgb(38, 50, 56); stroke-miterlimit: 10; transform-origin: 344.19px 135.64px;" id="elqaztoonqye" class="animable"></path><path d="M367.84,119.7a.75.75,0,1,1-.75-.74A.75.75,0,0,1,367.84,119.7Z" style="fill: rgb(255, 255, 255); stroke: rgb(38, 50, 56); stroke-miterlimit: 10; transform-origin: 367.09px 119.71px;" id="eli68z2h7rxv" class="animable"></path><path d="M114.13,150.85h0a2.13,2.13,0,0,1-1.8-1.4A18.42,18.42,0,0,0,79,146.6a2.12,2.12,0,0,1-2,1.08l-2.31-.2a2.11,2.11,0,0,0-2.1,3l4.13,9.21c.33.75.66,1.5.94,2.27a18.42,18.42,0,0,0,34.63.21c.64-1.75,1.32-3.5,2.11-5.19l1.45-3.1A2.1,2.1,0,0,0,114.13,150.85Z" style="fill: rgb(255, 255, 255); stroke: rgb(38, 50, 56); stroke-miterlimit: 10; transform-origin: 94.2296px 155.748px;" id="ellu8izo8wkrp" class="animable"></path><path d="M114.13,150.85h0a2.13,2.13,0,0,1-1.8-1.4,18.26,18.26,0,0,0-1.81-3.65L107,154.68a218,218,0,0,1-18.79,18.19A18.42,18.42,0,0,0,95,174.16l.78,0a129.85,129.85,0,0,0,16.71-12.59c.59-1.56,1.19-3.11,1.9-4.61l1.45-3.1A2.1,2.1,0,0,0,114.13,150.85Z" style="fill: rgb(255, 255, 255); stroke: rgb(38, 50, 56); stroke-miterlimit: 10; transform-origin: 102.131px 159.98px;" id="el2a9ngm7vwo" class="animable"></path><circle cx="95.02" cy="136.43" r="27.37" style="fill: rgb(255, 255, 255); stroke: rgb(38, 50, 56); stroke-miterlimit: 10; transform-origin: 95.02px 136.43px;" id="eleau44yflyw6" class="animable"></circle><circle cx="95.02" cy="136.43" r="23.72" style="fill: rgb(255, 255, 255); stroke: rgb(38, 50, 56); stroke-miterlimit: 10; transform-origin: 95.02px 136.43px;" id="elzctw8rz79ur" class="animable"></circle><circle cx="95.02" cy="136.43" r="18.42" style="fill: rgb(255, 255, 255); stroke: rgb(38, 50, 56); stroke-miterlimit: 10; transform-origin: 95.02px 136.43px;" id="el5oveerp6irs" class="animable"></circle><path d="M83.32,123.59v0l-22.51-11.4L59,117.76l21.3,11.1a3.09,3.09,0,0,0,1.74.54,3,3,0,0,0,1.25-5.81Z" style="fill: rgb(255, 255, 255); stroke: rgb(38, 50, 56); stroke-miterlimit: 10; transform-origin: 72.1307px 120.799px;" id="elwmrj16uj9u8" class="animable"></path><path d="M62.07,114.72a3,3,0,1,1-3-3A3,3,0,0,1,62.07,114.72Z" style="fill: rgb(255, 255, 255); stroke: rgb(38, 50, 56); stroke-miterlimit: 10; transform-origin: 59.07px 114.72px;" id="elcam03fluxr" class="animable"></path><line x1="205.99" y1="119.83" x2="266" y2="119.83" style="fill: none; stroke: rgb(38, 50, 56); stroke-miterlimit: 10; transform-origin: 235.995px 119.83px;" id="el42su3zwlqyk" class="animable"></line><line x1="282.92" y1="119.83" x2="308.05" y2="119.83" style="fill: none; stroke: rgb(38, 50, 56); stroke-miterlimit: 10; transform-origin: 295.485px 119.83px;" id="el121q2pdk0hbn" class="animable"></line><line x1="205.99" y1="130.08" x2="266" y2="130.08" style="fill: none; stroke: rgb(38, 50, 56); stroke-miterlimit: 10; transform-origin: 235.995px 130.08px;" id="el1d6mwpup1oa" class="animable"></line><line x1="282.92" y1="130.08" x2="308.05" y2="130.08" style="fill: none; stroke: rgb(38, 50, 56); stroke-miterlimit: 10; transform-origin: 295.485px 130.08px;" id="elshh1imagw0p" class="animable"></line><line x1="205.99" y1="140.34" x2="266" y2="140.34" style="fill: none; stroke: rgb(38, 50, 56); stroke-miterlimit: 10; transform-origin: 235.995px 140.34px;" id="eltjdbkksbhc" class="animable"></line><line x1="282.92" y1="140.34" x2="308.05" y2="140.34" style="fill: none; stroke: rgb(38, 50, 56); stroke-miterlimit: 10; transform-origin: 295.485px 140.34px;" id="eliw1wrywh468" class="animable"></line><line x1="205.99" y1="150.6" x2="266" y2="150.6" style="fill: none; stroke: rgb(38, 50, 56); stroke-miterlimit: 10; transform-origin: 235.995px 150.6px;" id="elaq2exzhp6om" class="animable"></line><line x1="282.92" y1="150.6" x2="308.05" y2="150.6" style="fill: none; stroke: rgb(38, 50, 56); stroke-miterlimit: 10; transform-origin: 295.485px 150.6px;" id="el6rz30pvfboh" class="animable"></line><line x1="205.99" y1="160.86" x2="266" y2="160.86" style="fill: none; stroke: rgb(38, 50, 56); stroke-miterlimit: 10; transform-origin: 235.995px 160.86px;" id="elo1jb5a55pnh" class="animable"></line><line x1="282.92" y1="160.86" x2="308.05" y2="160.86" style="fill: none; stroke: rgb(38, 50, 56); stroke-miterlimit: 10; transform-origin: 295.485px 160.86px;" id="elm2axgle6yn" class="animable"></line><line x1="205.99" y1="181.88" x2="266" y2="181.88" style="fill: none; stroke: rgb(38, 50, 56); stroke-miterlimit: 10; transform-origin: 235.995px 181.88px;" id="elqzracqsctv" class="animable"></line><line x1="282.92" y1="181.88" x2="308.05" y2="181.88" style="fill: none; stroke: rgb(38, 50, 56); stroke-miterlimit: 10; transform-origin: 295.485px 181.88px;" id="elcn8bbiu459r" class="animable"></line><line x1="205.99" y1="192.14" x2="266" y2="192.14" style="fill: none; stroke: rgb(38, 50, 56); stroke-miterlimit: 10; transform-origin: 235.995px 192.14px;" id="elo7l5okievj" class="animable"></line><line x1="282.92" y1="192.14" x2="308.05" y2="192.14" style="fill: none; stroke: rgb(38, 50, 56); stroke-miterlimit: 10; transform-origin: 295.485px 192.14px;" id="elak4pzww0njj" class="animable"></line><line x1="205.99" y1="202.4" x2="266" y2="202.4" style="fill: none; stroke: rgb(38, 50, 56); stroke-miterlimit: 10; transform-origin: 235.995px 202.4px;" id="elcf1b7183l4j" class="animable"></line><line x1="282.92" y1="202.4" x2="308.05" y2="202.4" style="fill: none; stroke: rgb(38, 50, 56); stroke-miterlimit: 10; transform-origin: 295.485px 202.4px;" id="elnoiwb0syh0c" class="animable"></line><line x1="205.99" y1="212.66" x2="266" y2="212.66" style="fill: none; stroke: rgb(38, 50, 56); stroke-miterlimit: 10; transform-origin: 235.995px 212.66px;" id="elqibi0kegxtl" class="animable"></line><line x1="282.92" y1="212.66" x2="308.05" y2="212.66" style="fill: none; stroke: rgb(38, 50, 56); stroke-miterlimit: 10; transform-origin: 295.485px 212.66px;" id="elfcdmq0t4spm" class="animable"></line><line x1="205.99" y1="222.91" x2="266" y2="222.91" style="fill: none; stroke: rgb(38, 50, 56); stroke-miterlimit: 10; transform-origin: 235.995px 222.91px;" id="ellhnuqph1wy" class="animable"></line><line x1="282.92" y1="222.91" x2="308.05" y2="222.91" style="fill: none; stroke: rgb(38, 50, 56); stroke-miterlimit: 10; transform-origin: 295.485px 222.91px;" id="elit730osky6j" class="animable"></line><line x1="343.44" y1="181.88" x2="403.45" y2="181.88" style="fill: none; stroke: rgb(38, 50, 56); stroke-miterlimit: 10; transform-origin: 373.445px 181.88px;" id="elzxzq4z9zs28" class="animable"></line><line x1="420.37" y1="181.88" x2="445.5" y2="181.88" style="fill: none; stroke: rgb(38, 50, 56); stroke-miterlimit: 10; transform-origin: 432.935px 181.88px;" id="elrp0k44va7m" class="animable"></line><line x1="343.44" y1="192.14" x2="403.45" y2="192.14" style="fill: none; stroke: rgb(38, 50, 56); stroke-miterlimit: 10; transform-origin: 373.445px 192.14px;" id="el26crdg7127g" class="animable"></line><line x1="420.37" y1="192.14" x2="445.5" y2="192.14" style="fill: none; stroke: rgb(38, 50, 56); stroke-miterlimit: 10; transform-origin: 432.935px 192.14px;" id="elkbd04ft62nh" class="animable"></line><line x1="343.44" y1="202.4" x2="403.45" y2="202.4" style="fill: none; stroke: rgb(38, 50, 56); stroke-miterlimit: 10; transform-origin: 373.445px 202.4px;" id="elrp14gl2vsb" class="animable"></line><line x1="420.37" y1="202.4" x2="445.5" y2="202.4" style="fill: none; stroke: rgb(38, 50, 56); stroke-miterlimit: 10; transform-origin: 432.935px 202.4px;" id="elmcqsh4de9a" class="animable"></line><line x1="343.44" y1="212.66" x2="403.45" y2="212.66" style="fill: none; stroke: rgb(38, 50, 56); stroke-miterlimit: 10; transform-origin: 373.445px 212.66px;" id="el8x6icwi02od" class="animable"></line><line x1="420.37" y1="212.66" x2="445.5" y2="212.66" style="fill: none; stroke: rgb(38, 50, 56); stroke-miterlimit: 10; transform-origin: 432.935px 212.66px;" id="elq5vkzngmcq" class="animable"></line><line x1="343.44" y1="222.91" x2="403.45" y2="222.91" style="fill: none; stroke: rgb(38, 50, 56); stroke-miterlimit: 10; transform-origin: 373.445px 222.91px;" id="elkvxo50f4xrk" class="animable"></line><line x1="420.37" y1="222.91" x2="445.5" y2="222.91" style="fill: none; stroke: rgb(38, 50, 56); stroke-miterlimit: 10; transform-origin: 432.935px 222.91px;" id="elaicrqa9q6od" class="animable"></line><line x1="62.9" y1="182.91" x2="122.9" y2="182.91" style="fill: none; stroke: rgb(38, 50, 56); stroke-miterlimit: 10; transform-origin: 92.9px 182.91px;" id="elxad7xd9fbtr" class="animable"></line><line x1="139.83" y1="182.91" x2="164.96" y2="182.91" style="fill: none; stroke: rgb(38, 50, 56); stroke-miterlimit: 10; transform-origin: 152.395px 182.91px;" id="elqqrdwvzpby" class="animable"></line><line x1="62.9" y1="193.17" x2="122.9" y2="193.17" style="fill: none; stroke: rgb(38, 50, 56); stroke-miterlimit: 10; transform-origin: 92.9px 193.17px;" id="eli0d9i3y11qa" class="animable"></line><line x1="139.83" y1="193.17" x2="164.96" y2="193.17" style="fill: none; stroke: rgb(38, 50, 56); stroke-miterlimit: 10; transform-origin: 152.395px 193.17px;" id="elnc7avbkt62" class="animable"></line><line x1="62.9" y1="203.43" x2="122.9" y2="203.43" style="fill: none; stroke: rgb(38, 50, 56); stroke-miterlimit: 10; transform-origin: 92.9px 203.43px;" id="el32n1d2r4q04" class="animable"></line><line x1="139.83" y1="203.43" x2="164.96" y2="203.43" style="fill: none; stroke: rgb(38, 50, 56); stroke-miterlimit: 10; transform-origin: 152.395px 203.43px;" id="el07evkou5h98m" class="animable"></line><line x1="62.9" y1="213.68" x2="122.9" y2="213.68" style="fill: none; stroke: rgb(38, 50, 56); stroke-miterlimit: 10; transform-origin: 92.9px 213.68px;" id="elv6i6r69xvp" class="animable"></line><line x1="139.83" y1="213.68" x2="164.96" y2="213.68" style="fill: none; stroke: rgb(38, 50, 56); stroke-miterlimit: 10; transform-origin: 152.395px 213.68px;" id="elhbua7u2ax8l" class="animable"></line><line x1="62.9" y1="223.94" x2="122.9" y2="223.94" style="fill: none; stroke: rgb(38, 50, 56); stroke-miterlimit: 10; transform-origin: 92.9px 223.94px;" id="elxet2fpmy7gf" class="animable"></line><line x1="139.83" y1="223.94" x2="164.96" y2="223.94" style="fill: none; stroke: rgb(38, 50, 56); stroke-miterlimit: 10; transform-origin: 152.395px 223.94px;" id="el3oxnmhrgsg5" class="animable"></line></g><g id="freepik--Plants--inject-15" class="animable" style="transform-origin: 80.9743px 339.155px;"><path d="M100.4,279s0-3.85-5.38-9.23-8.85-8.46-8.85-8.46-2.69,8.85,2.31,14.23a94.89,94.89,0,0,0,11.92,10.38Z" style="fill: rgb(146, 227, 169); transform-origin: 92.9237px 273.615px;" id="el7ed3i5c167i" class="animable"></path><path d="M92.59,303s0-3.84-5.39-9.22-8.84-8.46-8.84-8.46-2.69,8.84,2.31,14.22a94,94,0,0,0,11.92,10.38Z" style="fill: rgb(146, 227, 169); transform-origin: 85.1137px 297.62px;" id="el2xioa9gg32p" class="animable"></path><path d="M100.06,285.53s.4-3.82,6.32-8.6,9.69-7.48,9.69-7.48,1.74,9.08-3.8,13.9a94,94,0,0,1-12.94,9.07Z" style="fill: rgb(146, 227, 169); transform-origin: 107.829px 280.935px;" id="ele8bixdndbs" class="animable"></path><path d="M90.62,313.89s.81-3.76,7.2-7.9,10.42-6.41,10.42-6.41S109,308.78,103,313a93.68,93.68,0,0,1-13.83,7.65Z" style="fill: rgb(146, 227, 169); transform-origin: 98.7205px 310.115px;" id="elzxzed31txz" class="animable"></path><path d="M92.4,344.8s0-3.85,5.38-9.23,8.84-8.45,8.84-8.45,2.69,8.84-2.31,14.22A94.38,94.38,0,0,1,92.4,351.72Z" style="fill: rgb(146, 227, 169); transform-origin: 99.8713px 339.42px;" id="el64m6tib5ie7" class="animable"></path><path d="M92.31,352.34s.54-3.8-4-9.89-7.55-9.63-7.55-9.63-3.92,8.37.26,14.4a94.33,94.33,0,0,0,10.32,12Z" style="fill: rgb(146, 227, 169); transform-origin: 85.7111px 346.02px;" id="elhdb5dbmpso9" class="animable"></path><path d="M87,374.7s0-3.84,5.38-9.22,8.84-8.46,8.84-8.46,2.69,8.84-2.3,14.22A94,94,0,0,1,87,381.62Z" style="fill: rgb(146, 227, 169); transform-origin: 94.472px 369.32px;" id="ely5efksarx2" class="animable"></path><path d="M90.59,395s-1-3.72,2.87-10.29,6.41-10.42,6.41-10.42,4.85,7.87,1.38,14.34-9.88,11.54-9.88,11.54Z" style="fill: rgb(146, 227, 169); transform-origin: 96.4874px 387.23px;" id="elfrz8mixk6ot" class="animable"></path><path d="M100.88,278a109.15,109.15,0,0,1-1.47,11.94c-2.13,11-7.45,18.08-9.57,28s4,22.71,2.34,35.47-6.6,19.84-5.18,28.35S94,417,94,417" style="fill: none; stroke: rgb(38, 50, 56); stroke-linecap: round; stroke-linejoin: round; transform-origin: 93.8134px 347.5px;" id="eldmyxn410v86" class="animable"></path><line x1="100.01" y1="288.09" x2="105.8" y2="283.64" style="fill: none; stroke: rgb(38, 50, 56); stroke-linecap: round; stroke-linejoin: round; transform-origin: 102.905px 285.865px;" id="elijyjw2i43o" class="animable"></line><line x1="100.27" y1="282.96" x2="97.85" y2="278.65" style="fill: none; stroke: rgb(38, 50, 56); stroke-linecap: round; stroke-linejoin: round; transform-origin: 99.06px 280.805px;" id="el8b1ow709cpu" class="animable"></line><path d="M90.16,317.49s4.85-3.64,9.85-7.28" style="fill: none; stroke: rgb(38, 50, 56); stroke-linecap: round; stroke-linejoin: round; transform-origin: 95.085px 313.85px;" id="elyw2sp0zs5yq" class="animable"></path><path d="M92.59,309.91A77.76,77.76,0,0,0,84,296.72" style="fill: none; stroke: rgb(38, 50, 56); stroke-linecap: round; stroke-linejoin: round; transform-origin: 88.295px 303.315px;" id="eloip4y7vtd7q" class="animable"></path><path d="M92.59,350.27A60,60,0,0,1,103,336.37" style="fill: none; stroke: rgb(38, 50, 56); stroke-linecap: round; stroke-linejoin: round; transform-origin: 97.795px 343.32px;" id="elrscz65dpfm8" class="animable"></path><path d="M91.64,355.66a67,67,0,0,0-5.26-10c-2.83-4.18-3.23-4.72-3.23-4.72" style="fill: none; stroke: rgb(38, 50, 56); stroke-linecap: round; stroke-linejoin: round; transform-origin: 87.395px 348.3px;" id="elka0sovg39yn" class="animable"></path><path d="M87,381.77a65.79,65.79,0,0,1,4.37-8.85A56.32,56.32,0,0,1,97,365.51" style="fill: none; stroke: rgb(38, 50, 56); stroke-linecap: round; stroke-linejoin: round; transform-origin: 92px 373.64px;" id="elhmkvey7uqb5" class="animable"></path><path d="M91,402.56a35.64,35.64,0,0,1,2.83-9.4c2-3.92,4.32-9,5.26-11.06" style="fill: none; stroke: rgb(38, 50, 56); stroke-linecap: round; stroke-linejoin: round; transform-origin: 95.045px 392.33px;" id="elukp1cwlh9p9" class="animable"></path><path d="M56.48,330.34s-.42-2.41,2.37-6.37,4.63-6.26,4.63-6.26,2.65,5.25.1,9.17a59.77,59.77,0,0,1-6.35,7.8Z" style="fill: rgb(146, 227, 169); transform-origin: 60.5727px 326.195px;" id="el826o3f3koid" class="animable"></path><path d="M64,344.55s-.41-2.41,2.38-6.37S71,331.91,71,331.91s2.65,5.26.1,9.17a60.23,60.23,0,0,1-6.35,7.81Z" style="fill: rgb(146, 227, 169); transform-origin: 68.0934px 340.4px;" id="elmf9735nfa7l" class="animable"></path><path d="M57.4,334.41s-.67-2.35-4.9-4.71-6.88-3.64-6.88-3.64-.11,5.88,3.89,8.31a60.46,60.46,0,0,0,9.1,4.28Z" style="fill: rgb(146, 227, 169); transform-origin: 52.1149px 332.355px;" id="elzt54n8befce" class="animable"></path><path d="M66.4,351.16S65.48,348.89,61,347s-7.23-2.9-7.23-2.9.51,5.86,4.74,7.85a60.43,60.43,0,0,0,9.5,3.3Z" style="fill: rgb(146, 227, 169); transform-origin: 60.89px 349.675px;" id="elhhzyidf9bti" class="animable"></path><path d="M68.64,370.74s-.42-2.41-4.38-5.2-6.46-4.34-6.46-4.34-.73,5.83,3,8.66a59.76,59.76,0,0,0,8.6,5.22Z" style="fill: rgb(146, 227, 169); transform-origin: 63.5711px 368.14px;" id="elepfg9j37ymb" class="animable"></path><path d="M69.52,375.46s-.76-2.32,1.44-6.64S74.65,362,74.65,362s3.37,4.83,1.4,9.07a60.4,60.4,0,0,1-5.17,8.62Z" style="fill: rgb(146, 227, 169); transform-origin: 73.0305px 370.845px;" id="elj6rku1swgy" class="animable"></path><path d="M76.27,394.91s.28-2.43,4.07-5.45,6.21-4.7,6.21-4.7,1.06,5.78-2.49,8.82a60.25,60.25,0,0,1-8.29,5.7Z" style="fill: rgb(146, 227, 169); transform-origin: 81.2341px 392.02px;" id="el48nd4p1nkc9" class="animable"></path><path d="M75.27,388.91s-.42-2.41-4.38-5.2-6.46-4.35-6.46-4.35-.73,5.84,3,8.67a60.82,60.82,0,0,0,8.6,5.22Z" style="fill: rgb(146, 227, 169); transform-origin: 70.2011px 386.305px;" id="ellm5th1hd7zb" class="animable"></path><path d="M75.22,402s.2-2.44-2.92-6.14S67.15,390,67.15,390s-2.18,5.46.7,9.15a60.18,60.18,0,0,0,7,7.22Z" style="fill: rgb(146, 227, 169); transform-origin: 70.791px 398.185px;" id="ela7zhuv760ie" class="animable"></path><path d="M56.07,329.78a67.43,67.43,0,0,0,2.22,7.32c2.52,6.66,6.63,10.53,9,16.53s0,14.67,2.38,22.49S76,387.85,76,393.34,73.49,415,73.49,415" style="fill: none; stroke: rgb(38, 50, 56); stroke-linecap: round; stroke-linejoin: round; transform-origin: 66.035px 372.39px;" id="el0pv66aa62j5j" class="animable"></path><line x1="57.71" y1="336.01" x2="53.59" y2="333.84" style="fill: none; stroke: rgb(38, 50, 56); stroke-linecap: round; stroke-linejoin: round; transform-origin: 55.65px 334.925px;" id="elautooh4gaxt" class="animable"></line><line x1="56.99" y1="332.82" x2="58.04" y2="329.85" style="fill: none; stroke: rgb(38, 50, 56); stroke-linecap: round; stroke-linejoin: round; transform-origin: 57.515px 331.335px;" id="ell050fyds9mo" class="animable"></line><path d="M67.08,353.37s-3.44-1.75-7-3.49" style="fill: none; stroke: rgb(38, 50, 56); stroke-linecap: round; stroke-linejoin: round; transform-origin: 63.58px 351.625px;" id="elobm2765zrqa" class="animable"></path><path d="M64.73,348.89a49.39,49.39,0,0,1,4-9.21" style="fill: none; stroke: rgb(38, 50, 56); stroke-linecap: round; stroke-linejoin: round; transform-origin: 66.73px 344.285px;" id="elocsyd64cjm" class="animable"></path><path d="M69.11,374.19a38.11,38.11,0,0,0-8-7.58" style="fill: none; stroke: rgb(38, 50, 56); stroke-linecap: round; stroke-linejoin: round; transform-origin: 65.11px 370.4px;" id="el01ckz224rrxi" class="animable"></path><path d="M70.29,377.47a43.78,43.78,0,0,1,2.22-6.83c1.32-2.93,1.51-3.31,1.51-3.31" style="fill: none; stroke: rgb(38, 50, 56); stroke-linecap: round; stroke-linejoin: round; transform-origin: 72.155px 372.4px;" id="eldtsclb5giyg" class="animable"></path><path d="M75.85,397.5a36.54,36.54,0,0,1,4.43-4.6,23.62,23.62,0,0,0,2.88-2.5" style="fill: none; stroke: rgb(38, 50, 56); stroke-linecap: round; stroke-linejoin: round; transform-origin: 79.505px 393.95px;" id="el0lrwibyndzld" class="animable"></path><path d="M76,393.34a41.87,41.87,0,0,0-3.7-5.07,36.29,36.29,0,0,0-4.36-4" style="fill: none; stroke: rgb(38, 50, 56); stroke-linecap: round; stroke-linejoin: round; transform-origin: 71.97px 388.805px;" id="elf6rru7ppeoh" class="animable"></path><path d="M74.85,406.4A10.53,10.53,0,0,0,73,401.22c-1.69-2.24-3.69-5.2-4.5-6.37" style="fill: none; stroke: rgb(38, 50, 56); stroke-linecap: round; stroke-linejoin: round; transform-origin: 71.675px 400.625px;" id="elsqieavu8lkk" class="animable"></path></g><g id="freepik--Character--inject-15" class="animable animator-active" style="transform-origin: 229.347px 280.53px;"><path d="M263.19,160s27.6,26.67,28.84,40-19.23,24.19-13.33,28.53,22,15.82,15.81,25.74-9.3,12.41-7.13,14.58,7.44,4,7.13,9.3S288,288,288,288H190s-5.27.31-4.65-7.13,11.16-11.47,9.3-17.06-15.51-9.92-15.51-21.09,16.13-15.81,18.61-21.08-8.06-8.69-10.23-15.51,9-18.61,15.81-24.81,34.12-24.19,45-24.81S263.19,160,263.19,160Z" style="fill: rgb(38, 50, 56); transform-origin: 237.521px 222.224px;" id="el9fe52sp1r6e" class="animable"></path><g style="clip-path: url(&quot;#freepik--clip-path-3--inject-15&quot;); transform-origin: 239.98px 219.4px;" id="elem2tyrvpa2u" class="animable"><path d="M270.59,167.22s15,26.21,12.63,36.5-18.25,22-12.17,29.95,15,11.23,11.24,21.06a49.38,49.38,0,0,1-9.83,15.91" style="fill: none; stroke: rgb(133, 133, 133); stroke-linecap: round; stroke-linejoin: round; transform-origin: 276.573px 218.93px;" id="elzu8ac4948ci" class="animable"></path><path d="M203.67,203.26s9.36,14.5,7,18.71-15.91,9.36-14,20.12,21.53,27.61,21.53,29.49" style="fill: none; stroke: rgb(133, 133, 133); stroke-linecap: round; stroke-linejoin: round; transform-origin: 207.343px 237.42px;" id="elxm10830vru" class="animable"></path></g><path d="M263.19,160s27.6,26.67,28.84,40-19.23,24.19-13.33,28.53,22,15.82,15.81,25.74-9.3,12.41-7.13,14.58,7.44,4,7.13,9.3S288,288,288,288H190s-5.27.31-4.65-7.13,11.16-11.47,9.3-17.06-15.51-9.92-15.51-21.09,16.13-15.81,18.61-21.08-8.06-8.69-10.23-15.51,9-18.61,15.81-24.81,34.12-24.19,45-24.81S263.19,160,263.19,160Z" style="fill: none; stroke: rgb(38, 50, 56); stroke-linecap: round; stroke-linejoin: round; transform-origin: 237.521px 222.224px;" id="elz8bhpzt034" class="animable"></path><path d="M298.62,273.27s37.5,58.5,43,65.5-.5,18.5-9,24.5-22.73.76-30.11-6.87-14.89-25.63-14.89-25.63Z" style="fill: rgb(255, 255, 255); stroke: rgb(38, 50, 56); stroke-linecap: round; stroke-linejoin: round; transform-origin: 315.679px 319.572px;" id="elbyseqwd7j8k" class="animable"></path><path d="M235.62,253.77s-35,10.5-46,14.5-14,4.5-14,8.5c0,2.33,8.35,47.64,7.5,86.5-.61,28.08-10.5,53.5-10.5,53.5h127.5s-10.46-23.85-10.5-52.5c-.06-40.15,10.17-89.24,9-91C296.62,270.27,240.12,253.27,235.62,253.77Z" style="fill: rgb(255, 255, 255); stroke: rgb(38, 50, 56); stroke-linecap: round; stroke-linejoin: round; transform-origin: 236.37px 335.265px;" id="elkeq8mfgknk" class="animable"></path><path d="M290,373.71c-4.58-3.57-10.53-9.44-13.38-17.44-4.43-12.41-7.69-79-8.37-94-2.37-.72-4.75-1.44-7.09-2.13l1,62.63h-44.5l-3.89-62.31c-2.37.73-4.76,1.48-7.1,2.22.05,12.65.05,71.66-3.51,88.59-2.73,13-14.1,21.77-21,26a181.75,181.75,0,0,1-9.47,39.47h127.5A147.14,147.14,0,0,1,290,373.71Z" style="fill: rgb(38, 50, 56); transform-origin: 236.44px 338.44px;" id="elkyugcswn75f" class="animable"></path><g style="clip-path: url(&quot;#freepik--clip-path-4--inject-15&quot;); transform-origin: 235.295px 338.655px;" id="el0sdqbirf7sd" class="animable"><path d="M208.09,262.22l-1.46.46c.05,12.65.05,71.66-3.51,88.59-.2.94-.45,1.84-.73,2.73v62.77h5.7Z" style="fill: rgb(66, 66, 66); transform-origin: 205.24px 339.495px;" id="el22tjhodxj03" class="animable"></path><rect x="226.44" y="322.77" width="5.7" height="94" style="fill: rgb(66, 66, 66); transform-origin: 229.29px 369.77px;" id="elxzvzzln6o6h" class="animable"></rect><path d="M178.34,397.72v19H184V376c-.68.45-1.34.88-1.95,1.26A178.58,178.58,0,0,1,178.34,397.72Z" style="fill: rgb(66, 66, 66); transform-origin: 181.17px 396.36px;" id="elndlg95kmd3" class="animable"></path><path d="M196.06,365.38a48.57,48.57,0,0,1-5.69,5.84v45.55h5.69Z" style="fill: rgb(66, 66, 66); transform-origin: 193.215px 391.075px;" id="elq39gxm6rl1l" class="animable"></path><polygon points="214.41 271.47 214.41 416.77 220.11 416.77 220.11 322.77 217.62 322.77 214.41 271.47" style="fill: rgb(66, 66, 66); transform-origin: 217.26px 344.12px;" id="elnitn64rwbem" class="animable"></polygon><path d="M274.53,346.17v70.6h5.69v-53.4a32.86,32.86,0,0,1-3.6-7.1A60.06,60.06,0,0,1,274.53,346.17Z" style="fill: rgb(66, 66, 66); transform-origin: 277.375px 381.47px;" id="ellk17gf4u83a" class="animable"></path><path d="M286.55,370.76v46h5.7V390A141.55,141.55,0,0,1,290,373.71C288.91,372.86,287.74,371.87,286.55,370.76Z" style="fill: rgb(66, 66, 66); transform-origin: 289.4px 393.76px;" id="ely6am47qzfz" class="animable"></path><path d="M268.2,262.26c-1.9-.59-3.81-1.16-5.69-1.72V416.77h5.69Z" style="fill: rgb(66, 66, 66); transform-origin: 265.355px 338.655px;" id="elnn5owwe1z5f" class="animable"></path><rect x="250.48" y="322.77" width="5.7" height="94" style="fill: rgb(66, 66, 66); transform-origin: 253.33px 369.77px;" id="elb77dzqdbi1j" class="animable"></rect><rect x="238.46" y="322.77" width="5.7" height="94" style="fill: rgb(66, 66, 66); transform-origin: 241.31px 369.77px;" id="elhzxhf0d9vha" class="animable"></rect></g><path d="M290,373.71c-4.58-3.57-10.53-9.44-13.38-17.44-4.43-12.41-7.69-79-8.37-94-2.37-.72-4.75-1.44-7.09-2.13l1,62.63h-44.5l-3.89-62.31c-2.37.73-4.76,1.48-7.1,2.22.05,12.65.05,71.66-3.51,88.59-2.73,13-14.1,21.77-21,26a181.75,181.75,0,0,1-9.47,39.47h127.5A147.14,147.14,0,0,1,290,373.71Z" style="fill: none; stroke: rgb(38, 50, 56); stroke-linecap: round; stroke-linejoin: round; transform-origin: 236.44px 338.44px;" id="elvxy12mgov5" class="animable"></path><path d="M231.56,244.62s-13,4.65-15.51,9.92-1.24,26-3.41,32.25S205.2,297.65,208,298s11.16-12.41,15.5-10.86,16.13,17.68,17.06,17.68,9.93-10.85,11.79-14.26,8.68,1.86,11.78,9.61,4,5,4,2.17-3.72-14.89-3.1-17.06-.31-13-.31-23.88a18,18,0,0,0-14.89-18C243,242.13,231.56,244.62,231.56,244.62Z" style="fill: rgb(255, 255, 255); stroke: rgb(38, 50, 56); stroke-linecap: round; stroke-linejoin: round; transform-origin: 237.664px 274.132px;" id="elh2hm720vryk" class="animable"></path><path d="M225.66,236.86v35.05s11.48,37.83,15.51,35,13.34-33.49,13.34-33.49V237.17S240.24,243.38,225.66,236.86Z" style="fill: rgb(255, 255, 255); stroke: rgb(38, 50, 56); stroke-linecap: round; stroke-linejoin: round; transform-origin: 240.085px 271.961px;" id="el07ztt3x7ytlp" class="animable"></path><path d="M225.66,236.86v7.29c5.8,3.33,12.63,5.58,18.78,5.58a22.74,22.74,0,0,0,10.07-2.49V237.17S240.24,243.38,225.66,236.86Z" style="fill: rgb(38, 50, 56); stroke: rgb(38, 50, 56); stroke-linecap: round; stroke-linejoin: round; transform-origin: 240.085px 243.295px;" id="ellfs3b3zmrab" class="animable"></path><path d="M213.88,198.72s-6.82-9-10.86-2.49,6.52,18.61,9.62,18.3S213.88,198.72,213.88,198.72Z" style="fill: rgb(255, 255, 255); stroke: rgb(38, 50, 56); stroke-linecap: round; stroke-linejoin: round; transform-origin: 208.272px 204.201px;" id="eliv0a5e7mvo" class="animable"></path><path d="M268.73,198.72s6.82-9,10.86-2.49-6.52,18.61-9.62,18.3S268.73,198.72,268.73,198.72Z" style="fill: rgb(255, 255, 255); stroke: rgb(38, 50, 56); stroke-linecap: round; stroke-linejoin: round; transform-origin: 274.338px 204.201px;" id="el49tpun894mt" class="animable"></path><path d="M213,186.12s-3.44,31-.43,40,18.93,18.93,31.84,18.93,23.65-12.47,25.38-19.79-2.16-54.2-4.74-59.36-18.92-5.59-35.27,2.58S213,186.12,213,186.12Z" style="fill: rgb(255, 255, 255); stroke: rgb(38, 50, 56); stroke-linecap: round; stroke-linejoin: round; transform-origin: 240.777px 203.604px;" id="elvqkb0hmcmiq" class="animable"></path><path d="M245.2,191s-2.79,7.45-.31,11.79.93,7.44-1.86,7.44-4-4.65-4-4.65" style="fill: none; stroke: rgb(38, 50, 56); stroke-linecap: round; stroke-linejoin: round; transform-origin: 242.581px 200.615px;" id="el6hj5q35vz5s" class="animable"></path><path d="M229.39,213.29s13,9,24.5,0" style="fill: none; stroke: rgb(38, 50, 56); stroke-linecap: round; stroke-linejoin: round; transform-origin: 241.64px 215.29px;" id="elhi8jkqyxa2f" class="animable"></path><path d="M248,186.62s5.59-6.2,12.1.62" style="fill: none; stroke: rgb(38, 50, 56); stroke-linecap: round; stroke-linejoin: round; transform-origin: 254.05px 185.64px;" id="elsujje4148f9" class="animable"></path><path d="M235.28,186s-5.58-5.89-12.41-.62" style="fill: none; stroke: rgb(38, 50, 56); stroke-linecap: round; stroke-linejoin: round; transform-origin: 229.075px 184.594px;" id="el9r3g73t0sv" class="animable"></path><ellipse cx="253.27" cy="195.92" rx="1.86" ry="3.72" style="fill: rgb(38, 50, 56); transform-origin: 253.27px 195.92px;" id="elrmozmr6rml" class="animable"></ellipse><ellipse cx="230.01" cy="195.92" rx="1.86" ry="3.72" style="fill: rgb(38, 50, 56); transform-origin: 230.01px 195.92px;" id="elh7i3c9x8tua" class="animable"></ellipse><path d="M221,201.2a29.57,29.57,0,0,1,9.62,0" style="fill: none; stroke: rgb(38, 50, 56); stroke-linecap: round; stroke-linejoin: round; transform-origin: 225.81px 201.003px;" id="elxb5c3dlw85f" class="animable"></path><path d="M252.65,201.51a25.65,25.65,0,0,1,9.3,0" style="fill: none; stroke: rgb(38, 50, 56); stroke-linecap: round; stroke-linejoin: round; transform-origin: 257.3px 201.297px;" id="elg2dr0ksahjc" class="animable"></path><path d="M198.06,204s48.69-20.16,60.48-29.47,14.88-27.29-12.72-26.36-56.75,33.19-59.23,48.07S194,208,194,208" style="fill: rgb(38, 50, 56); transform-origin: 226.684px 178.204px;" id="elx3wqjfcejy" class="animable"></path><g style="clip-path: url(&quot;#freepik--clip-path-5--inject-15&quot;); transform-origin: 222.62px 172.62px;" id="elimw9ow8n6g" class="animable"><path d="M264.5,149a147.73,147.73,0,0,1-40.24,34.16c-25.74,15-42.12,17.79-42.12,17.79" style="fill: none; stroke: rgb(133, 133, 133); stroke-linecap: round; stroke-linejoin: round; transform-origin: 223.32px 174.975px;" id="el39ykbiouye5" class="animable"></path><path d="M246.25,144.29s-22.93,36-65.51,50.07" style="fill: none; stroke: rgb(133, 133, 133); stroke-linecap: round; stroke-linejoin: round; transform-origin: 213.495px 169.325px;" id="elnfg6qhseiq" class="animable"></path></g><path d="M198.06,204s48.69-20.16,60.48-29.47,14.88-27.29-12.72-26.36-56.75,33.19-59.23,48.07S194,208,194,208" style="fill: none; stroke: rgb(38, 50, 56); stroke-linecap: round; stroke-linejoin: round; transform-origin: 226.684px 178.204px;" id="elc379boyrzzd" class="animable"></path><path d="M301.62,315.52s-5.75-2.5-12.5-4.75-10.5,2.25-7.75,6.25,12.5,4.75,17.25,9,8.5,18,13.25,20.5a30.49,30.49,0,0,0,10,3v-34Z" style="fill: rgb(255, 255, 255); stroke: rgb(38, 50, 56); stroke-linecap: round; stroke-linejoin: round; transform-origin: 301.166px 329.844px;" id="el3cmlwjprfnm" class="animable"></path><polygon points="331.03 356.4 302.51 356.4 296.13 297.57 337.41 297.57 331.03 356.4" style="fill: rgb(146, 227, 169); stroke: rgb(38, 50, 56); stroke-linecap: round; stroke-linejoin: round; transform-origin: 316.77px 326.985px;" id="elb8wsa3an9t" class="animable"></polygon><polygon points="338.39 288.35 295.14 288.35 291.37 296.27 342.62 296.27 338.39 288.35" style="fill: rgb(255, 255, 255); stroke: rgb(38, 50, 56); stroke-linecap: round; stroke-linejoin: round; transform-origin: 316.995px 292.31px;" id="elqmvyt9hqc" class="animable"></polygon><polygon points="296.75 298.83 337.68 298.83 341.25 296.27 292.75 296.27 296.75 298.83" style="fill: rgb(255, 255, 255); stroke: rgb(38, 50, 56); stroke-linecap: round; stroke-linejoin: round; transform-origin: 317px 297.55px;" id="elxnso5233ojn" class="animable"></polygon><polygon points="332.78 340.27 336.44 306.52 297.1 306.52 300.76 340.27 332.78 340.27" style="fill: rgb(255, 255, 255); stroke: rgb(38, 50, 56); stroke-linecap: round; stroke-linejoin: round; transform-origin: 316.77px 323.395px;" id="el9ndk6rqo74u" class="animable"></polygon><path d="M342.12,316.77s-13.25.25-15.75,2.75-1.75,5.5,3,6,11.75,1.5,15.5.5S348.62,316.77,342.12,316.77Z" style="fill: rgb(255, 255, 255); stroke: rgb(38, 50, 56); stroke-linecap: round; stroke-linejoin: round; transform-origin: 336.188px 321.609px;" id="elcw1lw81lfu" class="animable"></path><path d="M339.08,343.52s-10.52.2-12.5,2.19-1.39,4.36,2.38,4.76,9.32,1.19,12.3.39S344.23,343.52,339.08,343.52Z" style="fill: rgb(255, 255, 255); stroke: rgb(38, 50, 56); stroke-linecap: round; stroke-linejoin: round; transform-origin: 334.372px 347.362px;" id="elf9qag2x9ama" class="animable"></path><path d="M344.62,327s-17.25,0-21.5.75-5.75,5,.5,6.25,19,2,23,1.5S350.87,326.77,344.62,327Z" style="fill: rgb(255, 255, 255); stroke: rgb(38, 50, 56); stroke-linecap: round; stroke-linejoin: round; transform-origin: 334.458px 331.326px;" id="el18xsjdbg8li" class="animable"></path><path d="M343.62,336s-13.75-.5-18.5,1.25-3,4.25,1.5,5.25,14.5,2.25,18.25,1S348.62,335.52,343.62,336Z" style="fill: rgb(255, 255, 255); stroke: rgb(38, 50, 56); stroke-linecap: round; stroke-linejoin: round; transform-origin: 334.92px 339.979px;" id="eletcm0ulj5pd" class="animable"></path><path d="M131,247.78s-2.65,1.59-.79,9.55l1.85,7.95,11.4-2.12s-5-9-7.16-13S131.57,246.72,131,247.78Z" style="fill: rgb(255, 255, 255); stroke: rgb(38, 50, 56); stroke-linecap: round; stroke-linejoin: round; transform-origin: 136.504px 256.144px;" id="elruvv2r9080a" class="animable"></path><path d="M122,262.37s36.32-6.1,47.2-9.81a244.92,244.92,0,0,1,24.92-6.63,31.27,31.27,0,0,1,6.63-.8s1.06,0,.8,4.51,5.83,63.11,11.4,81.14,9,26.52,9,26.52-32.61,6.63-62.84,6.63a273.48,273.48,0,0,1-49.85-4.25c-1.06,0,13-53,12.46-71.06C121.22,270.36,122,262.37,122,262.37Z" style="fill: rgb(146, 227, 169); stroke: rgb(38, 50, 56); stroke-linecap: round; stroke-linejoin: round; transform-origin: 165.576px 304.533px;" id="elhrnecvtbpk5" class="animable"></path><path d="M213,330.78c-5.57-18-11.67-76.63-11.4-81.14s-.8-4.51-.8-4.51a32,32,0,0,0-3.72.27,14.13,14.13,0,0,0,0,3.44S196.8,277.75,196,312c-.66,28.38-.23,44.7-.06,49.44,15.09-1.87,26-4.09,26-4.09S218.55,348.81,213,330.78Z" style="fill: rgb(146, 227, 169); stroke: rgb(38, 50, 56); stroke-linecap: round; stroke-linejoin: round; transform-origin: 208.792px 303.285px;" id="elub4y8fb7yln" class="animable"></path><path d="M200.25,246.46v13.26c0,4.24.8,6.36-.8,6.36s-14.84,2.39-36.32,6.63a300.05,300.05,0,0,1-41.37,5.3c-1.59,0,.27-15.64.27-15.64s40.3-6.37,53.29-10.61a191.74,191.74,0,0,1,23.6-6.1" style="fill: rgb(146, 227, 169); stroke: rgb(38, 50, 56); stroke-linecap: round; stroke-linejoin: round; transform-origin: 160.784px 261.835px;" id="elcfngqfj9o2d" class="animable"></path><path d="M153.85,236.91s2.65-6.1,9.81-2.12,11.93,18.3,10.87,21.21-4.51,3.72-7.43.8-10.34-13.52-12.19-16.44S153.85,236.91,153.85,236.91Z" style="fill: rgb(255, 255, 255); stroke: rgb(38, 50, 56); stroke-linecap: round; stroke-linejoin: round; transform-origin: 164.18px 246.035px;" id="el573imb375b5" class="animable"></path><path d="M145.89,240.62s13.4,19.54,15.91,21.22,7.18,2.64,5.83-3.18c-1.27-5.53-6.36-16.18-9.81-19.89s-5.83-4.24-8.75-2.65S145.36,238.5,145.89,240.62Z" style="fill: rgb(255, 255, 255); stroke: rgb(38, 50, 56); stroke-linecap: round; stroke-linejoin: round; transform-origin: 156.803px 249.201px;" id="elry0autz76n" class="animable"></path><path d="M147,239.56s12.46,15.91,13.53,19.63-1.07,9.81-6.63,6.36-10.61-14.85-13.79-18.83S142.44,236.65,147,239.56Z" style="fill: rgb(255, 255, 255); stroke: rgb(38, 50, 56); stroke-linecap: round; stroke-linejoin: round; transform-origin: 149.982px 252.685px;" id="elm65zloo5d5k" class="animable"></path><path d="M139.53,243.54s-8,1.06-9,5.3,5.83,13.53,11.4,15.12,7.16-2.92,5.57-6.63S142.18,244.34,139.53,243.54Z" style="fill: rgb(255, 255, 255); stroke: rgb(38, 50, 56); stroke-linecap: round; stroke-linejoin: round; transform-origin: 139.258px 253.914px;" id="elm3lups95yn" class="animable"></path></g><g id="freepik--Device--inject-15" class="animable" style="transform-origin: 255.5px 363.28px;"><polygon points="428.97 398.51 342.45 398.51 362.69 304.56 449.21 304.56 428.97 398.51" style="fill: rgb(38, 50, 56); stroke: rgb(38, 50, 56); stroke-linecap: round; stroke-linejoin: round; transform-origin: 395.83px 351.535px;" id="elweibhzesmp" class="animable"></polygon><path d="M449.21,304.56H362.69S411.68,316.39,449.21,304.56Z" style="fill: rgb(107, 107, 107); stroke: rgb(38, 50, 56); stroke-linecap: round; stroke-linejoin: round; transform-origin: 405.95px 307.189px;" id="elf40ytyizy0c" class="animable"></path><polygon points="390.42 345.11 381.3 373.16 396.85 383.64 402.93 366.07 390.42 345.11" style="fill: rgb(59, 59, 59); stroke: rgb(38, 50, 56); stroke-linecap: round; stroke-linejoin: round; transform-origin: 392.115px 364.375px;" id="elbg4p70xjz" class="animable"></polygon><polygon points="390.42 345.11 420.5 345.11 425.23 363.03 402.93 366.07 390.42 345.11" style="fill: rgb(59, 59, 59); stroke: rgb(38, 50, 56); stroke-linecap: round; stroke-linejoin: round; transform-origin: 407.825px 355.59px;" id="elo419cf3vmk" class="animable"></polygon><path d="M417.09,414.39a134.45,134.45,0,0,0-18.56-58.8l-23.72,58.8Z" style="fill: rgb(59, 59, 59); stroke: rgb(38, 50, 56); stroke-linecap: round; stroke-linejoin: round; transform-origin: 395.95px 384.99px;" id="el8sqbbtck64r" class="animable"></path><path d="M454.41,414.39c.62-27.45-13.63-58.8-13.63-58.8H398.53a134.45,134.45,0,0,1,18.56,58.8Z" style="fill: rgb(107, 107, 107); stroke: rgb(38, 50, 56); stroke-linecap: round; stroke-linejoin: round; transform-origin: 426.48px 384.99px;" id="el5tru6ft1dit" class="animable"></path><rect x="42.69" y="411.27" width="425.62" height="10.73" style="fill: rgb(255, 255, 255); stroke: rgb(38, 50, 56); stroke-linecap: round; stroke-linejoin: round; transform-origin: 255.5px 416.635px;" id="el4bu1smmfmte" class="animable"></rect></g><defs>     <filter id="active" height="200%">         <feMorphology in="SourceAlpha" result="DILATED" operator="dilate" radius="2"></feMorphology>                <feFlood flood-color="#32DFEC" flood-opacity="1" result="PINK"></feFlood>        <feComposite in="PINK" in2="DILATED" operator="in" result="OUTLINE"></feComposite>        <feMerge>            <feMergeNode in="OUTLINE"></feMergeNode>            <feMergeNode in="SourceGraphic"></feMergeNode>        </feMerge>    </filter>    <filter id="hover" height="200%">        <feMorphology in="SourceAlpha" result="DILATED" operator="dilate" radius="2"></feMorphology>                <feFlood flood-color="#ff0000" flood-opacity="0.5" result="PINK"></feFlood>        <feComposite in="PINK" in2="DILATED" operator="in" result="OUTLINE"></feComposite>        <feMerge>            <feMergeNode in="OUTLINE"></feMergeNode>            <feMergeNode in="SourceGraphic"></feMergeNode>        </feMerge>            <feColorMatrix type="matrix" values="0   0   0   0   0                0   1   0   0   0                0   0   0   0   0                0   0   0   1   0 "></feColorMatrix>    </filter></defs><defs><clipPath id="freepik--clip-path--inject-15"><rect x="49" y="103" width="413" height="133" style="fill:#fff;stroke:#263238;stroke-linecap:round;stroke-linejoin:round"></rect></clipPath><clipPath id="freepik--clip-path-2--inject-15"><rect x="183.1" y="103" width="144.79" height="133" style="fill:#fff;stroke:#263238;stroke-linecap:round;stroke-linejoin:round"></rect></clipPath><clipPath id="freepik--clip-path-3--inject-15"><path d="M263.19,160s27.6,26.67,28.84,40-19.23,24.19-13.33,28.53,22,15.82,15.81,25.74-9.3,12.41-7.13,14.58,7.44,4,7.13,9.3S288,288,288,288H190s-5.27.31-4.65-7.13,11.16-11.47,9.3-17.06-15.51-9.92-15.51-21.09,16.13-15.81,18.61-21.08-8.06-8.69-10.23-15.51,9-18.61,15.81-24.81,34.12-24.19,45-24.81S263.19,160,263.19,160Z" style="fill:#263238;stroke:#263238;stroke-linecap:round;stroke-linejoin:round"></path></clipPath><clipPath id="freepik--clip-path-4--inject-15"><path d="M290,373.71c-4.58-3.57-10.53-9.44-13.38-17.44-4.43-12.41-7.69-79-8.37-94-2.37-.72-4.75-1.44-7.09-2.13l1,62.63h-44.5l-3.89-62.31c-2.37.73-4.76,1.48-7.1,2.22.05,12.65.05,71.66-3.51,88.59-2.73,13-14.1,21.77-21,26a181.75,181.75,0,0,1-9.47,39.47h127.5A147.14,147.14,0,0,1,290,373.71Z" style="fill:#263238;stroke:#263238;stroke-linecap:round;stroke-linejoin:round"></path></clipPath><clipPath id="freepik--clip-path-5--inject-15"><path d="M198.06,204s48.69-20.16,60.48-29.47,14.88-27.29-12.72-26.36-56.75,33.19-59.23,48.07S194,208,194,208" style="fill:#263238;stroke:#263238;stroke-linecap:round;stroke-linejoin:round"></path></clipPath></defs></svg>